<svg xmlns="http://www.w3.org/2000/svg" version="1.0" width="170.000000pt" height="170.000000pt" viewBox="0 0 170.000000 170.000000" preserveAspectRatio="xMidYMid meet">

<g transform="translate(0.000000,170.000000) scale(0.100000,-0.100000)" fill="#000000" stroke="none">
<path d="M723 1683 c-31 -4 -33 -7 -33 -43 0 -68 1 -69 99 -63 391 25 711 -215 787 -590 46 -224 -37 -489 -205 -658 -36 -37 -75 -71 -86 -77 -20 -10 -20 -11 3 -56 12 -25 26 -46 31 -46 5 0 35 20 68 44 125 95 231 262 285 452 32 112 32 305 0 417 -87 306 -303 521 -597 597 -79 21 -280 34 -352 23z" fill="#ffffff"/>
<path d="M445 1586 c-232 -107 -415 -416 -415 -701 0 -146 53 -337 131 -468 54 -92 167 -209 256 -267 121 -80 276 -130 399 -130 l55 0 -3 53 -3 52 -71 6 c-315 29 -567 264 -636 595 -39 192 -8 372 96 537 42 69 154 187 177 187 5 0 9 -139 9 -355 l0 -355 280 0 280 0 0 45 0 45 -235 0 -235 0 0 390 c0 442 8 409 -85 366z" fill="#ffffff"/>
<path d="M600 1111 c0 -5 9 -30 19 -54 l20 -45 178 -4 c160 -3 183 -5 228 -26 80 -37 145 -110 145 -163 0 -68 -110 -194 -196 -223 -26 -9 -76 -16 -112 -16 -37 0 -62 -4 -60 -10 2 -5 55 -131 118 -280 l115 -270 58 0 c31 0 57 1 57 3 0 2 -43 102 -95 222 -53 121 -93 225 -91 232 3 7 12 13 21 13 31 0 119 53 172 102 71 68 113 153 113 227 -1 73 -25 125 -87 183 -102 95 -187 118 -435 118 -96 0 -168 -4 -168 -9z" fill="#ffffff"/>
</g>
</svg>